<svg width="900" height="550" xmlns="http://www.w3.org/2000/svg">
  <style>
    .bg { fill: #f5f5f5; }
    .frame { fill: none; stroke: #333; stroke-width: 2; }
    .panel-bg { fill: #fafafa; }
    .header-bg { fill: #e8e8e8; }
    .main-text { fill: #1a1a1a; font-family: Arial, sans-serif; }
    .secondary-text { fill: #666; font-family: Arial, sans-serif; }
    .icon-text { fill: #333; font-family: Arial, sans-serif; }
    .divider { stroke: #ddd; stroke-width: 1; }
    .button { fill: #4A90E2; }
    .button-text { fill: #fff; font-family: Arial, sans-serif; }
    .input-field { fill: #fff; stroke: #ccc; stroke-width: 1; }
    .unread-dot { fill: #4A90E2; }
    .selected-row { fill: #e8f4fd; }
    .row-bg { fill: #fff; }
    .sidebar-active { fill: #e8f4fd; }
    .badge { fill: #4A90E2; }
    .action-btn { fill: #f0f0f0; stroke: #ccc; stroke-width: 1; }

    @media (prefers-color-scheme: dark) {
      .bg { fill: #1a1a1a; }
      .frame { stroke: #555; }
      .panel-bg { fill: #222; }
      .header-bg { fill: #2a2a2a; }
      .main-text { fill: #ffffff; }
      .secondary-text { fill: #aaa; }
      .icon-text { fill: #ddd; }
      .divider { stroke: #444; }
      .input-field { fill: #2a2a2a; stroke: #444; }
      .unread-dot { fill: #00D4FF; }
      .selected-row { fill: #2a3a4a; }
      .row-bg { fill: #222; }
      .sidebar-active { fill: #2a3a4a; }
      .badge { fill: #00D4FF; }
      .button { fill: #00D4FF; }
      .action-btn { fill: #333; stroke: #555; }
    }
  </style>

  <!-- Title -->
  <text x="450" y="30" text-anchor="middle" font-size="20" font-weight="600" class="main-text">Mail - Email Client Interface</text>

  <!-- Main Frame -->
  <rect x="30" y="50" width="840" height="470" rx="8" class="frame bg"/>

  <!-- Left Sidebar -->
  <rect x="30" y="50" width="130" height="470" rx="8" class="panel-bg"/>
  <rect x="152" y="50" width="8" height="470" class="bg"/>

  <!-- Compose Button -->
  <rect x="45" y="65" width="100" height="35" rx="6" class="button"/>
  <text x="95" y="88" text-anchor="middle" font-size="13" class="button-text">✏ Compose</text>

  <!-- Sidebar Items -->
  <g transform="translate(45, 120)">
    <!-- Inbox - Active -->
    <rect x="-5" y="-5" width="110" height="30" rx="4" class="sidebar-active"/>
    <text x="0" y="14" font-size="14" class="main-text">📥 Inbox</text>
    <rect x="75" y="2" width="22" height="16" rx="8" class="badge"/>
    <text x="86" y="14" text-anchor="middle" font-size="11" fill="#fff">3</text>

    <text x="0" y="50" font-size="14" class="secondary-text">📤 Sent</text>
    <text x="0" y="80" font-size="14" class="secondary-text">📝 Drafts</text>
    <text x="0" y="110" font-size="14" class="secondary-text">🗑 Trash</text>
  </g>

  <!-- Middle Panel - Email List -->
  <rect x="160" y="50" width="220" height="470" class="panel-bg"/>
  <line x1="380" y1="50" x2="380" y2="520" class="divider"/>

  <!-- List Header -->
  <rect x="160" y="50" width="220" height="35" class="header-bg"/>
  <text x="175" y="73" font-size="14" font-weight="500" class="main-text">Inbox</text>

  <!-- Email List Items -->
  <g transform="translate(160, 90)">
    <!-- Email 1 - Unread, Selected -->
    <rect x="0" y="0" width="220" height="70" class="selected-row"/>
    <circle cx="20" cy="20" r="5" class="unread-dot"/>
    <text x="35" y="20" font-size="13" font-weight="600" class="main-text">Project Update</text>
    <text x="35" y="38" font-size="12" class="secondary-text">from John</text>
    <text x="175" y="20" font-size="11" class="secondary-text">10:30 AM</text>
    <line x1="0" y1="70" x2="220" y2="70" class="divider"/>

    <!-- Email 2 - Read -->
    <rect x="0" y="70" width="220" height="70" class="row-bg"/>
    <circle cx="20" cy="90" r="5" fill="none" stroke="#ccc"/>
    <text x="35" y="90" font-size="13" class="main-text">Meeting Notes</text>
    <text x="35" y="108" font-size="12" class="secondary-text">from Sarah</text>
    <text x="175" y="90" font-size="11" class="secondary-text">Yesterday</text>
    <line x1="0" y1="140" x2="220" y2="140" class="divider"/>

    <!-- Email 3 - Read -->
    <rect x="0" y="140" width="220" height="70" class="row-bg"/>
    <circle cx="20" cy="160" r="5" fill="none" stroke="#ccc"/>
    <text x="35" y="160" font-size="13" class="main-text">Invoice #1234</text>
    <text x="35" y="178" font-size="12" class="secondary-text">from Vendor</text>
    <text x="175" y="160" font-size="11" class="secondary-text">Mar 15</text>
    <line x1="0" y1="210" x2="220" y2="210" class="divider"/>
  </g>

  <!-- Right Panel - Email Content -->
  <rect x="380" y="50" width="490" height="470" rx="8" class="bg"/>

  <!-- Email Header -->
  <g transform="translate(400, 70)">
    <text x="0" y="0" font-size="12" class="secondary-text">From:</text>
    <text x="45" y="0" font-size="12" class="main-text">john@company.com</text>

    <text x="0" y="25" font-size="12" class="secondary-text">Subject:</text>
    <text x="55" y="25" font-size="14" font-weight="600" class="main-text">Project Update</text>
  </g>

  <!-- Divider -->
  <line x1="400" y1="115" x2="850" y2="115" class="divider"/>

  <!-- Email Body -->
  <g transform="translate(400, 135)">
    <text x="0" y="0" font-size="14" class="main-text">Hi,</text>
    <text x="0" y="30" font-size="14" class="main-text">Here's the latest update on our project.</text>
    <text x="0" y="55" font-size="14" class="main-text">We've completed the first milestone and</text>
    <text x="0" y="80" font-size="14" class="main-text">are now moving to phase two.</text>
    <text x="0" y="130" font-size="14" class="main-text">Best,</text>
    <text x="0" y="155" font-size="14" class="main-text">John</text>
  </g>

  <!-- Action Buttons -->
  <g transform="translate(400, 460)">
    <rect x="0" y="0" width="80" height="35" rx="6" class="button"/>
    <text x="40" y="23" text-anchor="middle" font-size="13" class="button-text">Reply</text>

    <rect x="90" y="0" width="90" height="35" rx="6" class="action-btn"/>
    <text x="135" y="23" text-anchor="middle" font-size="13" class="main-text">Forward</text>

    <rect x="190" y="0" width="80" height="35" rx="6" class="action-btn"/>
    <text x="230" y="23" text-anchor="middle" font-size="13" class="main-text">Delete</text>
  </g>

  <!-- Legend -->
  <g transform="translate(30, 535)">
    <text x="0" y="0" font-size="11" class="secondary-text">Sidebar: Folders</text>
    <text x="150" y="0" font-size="11" class="secondary-text">List: Email threads</text>
    <text x="320" y="0" font-size="11" class="secondary-text">Content: Read and reply</text>
    <text x="550" y="0" font-size="11" class="secondary-text">Shortcuts: C = Compose | R = Reply | F = Forward</text>
  </g>
</svg>
