<svg width="900" height="600" xmlns="http://www.w3.org/2000/svg" role="img" aria-label="Designer">
  <defs>
    <linearGradient id="accentGrad" x1="0%" y1="0%" x2="100%" y2="100%">
      <stop offset="0%" stop-color="#2563eb"/>
      <stop offset="100%" stop-color="#60a5fa"/>
    </linearGradient>
  </defs>
  <style>
    .bg { fill: #ffffff; }
    .titlebar { fill: #f8fafc; }
    .sidebar-bg { fill: #f8fafc; }
    .main-text { fill: #1e293b; font-family: system-ui, -apple-system, sans-serif; }
    .secondary-text { fill: #64748b; font-family: system-ui, -apple-system, sans-serif; }
    .muted-text { fill: #94a3b8; font-family: system-ui, -apple-system, sans-serif; }
    .white-text { fill: #ffffff; font-family: system-ui, -apple-system, sans-serif; }
    .accent-text { fill: #2563eb; font-family: system-ui, -apple-system, sans-serif; }
    .border { stroke: #e2e8f0; stroke-width: 1; fill: none; }
    .chip { fill: #f1f5f9; }
    .chip-active { fill: #dbeafe; }
    .row { fill: #f8fafc; }
    .bar { fill: #e2e8f0; }
    @media (prefers-color-scheme: dark) {
      .bg { fill: #0f172a; }
      .titlebar { fill: #1e293b; }
      .sidebar-bg { fill: #1e293b; }
      .main-text { fill: #e2e8f0; }
      .secondary-text { fill: #94a3b8; }
      .muted-text { fill: #64748b; }
      .accent-text { fill: #60a5fa; }
      .border { stroke: #334155; }
      .chip { fill: #334155; }
      .chip-active { fill: #1e3a5f; }
      .row { fill: #1e293b; }
      .bar { fill: #334155; }
    }
  </style>
  <text x="450" y="25" text-anchor="middle" font-size="16" font-weight="600" class="main-text">Designer</text>
  <rect x="30" y="40" width="840" height="530" rx="8" class="bg"/>
  <rect x="30" y="40" width="840" height="530" rx="8" class="border"/>
  <path d="M30 52 a12 12 0 0 1 12 -12 h816 a12 12 0 0 1 12 12 v32 h-840 z" class="titlebar"/>
  <text x="46" y="61" font-size="13.5" font-weight="600" class="main-text">Designer</text>
  <text x="816" y="67" text-anchor="middle" font-size="13" class="muted-text">–</text>
  <text x="840" y="67" text-anchor="middle" font-size="13" class="muted-text">✕</text>
  <line x1="30" y1="84" x2="870" y2="84" class="border"/>
  <rect x="46" y="87" width="40" height="26" rx="6" class="chip"/>
  <text x="66" y="104" text-anchor="middle" font-size="11.5" class="secondary-text">New</text>
  <rect x="94" y="87" width="46" height="26" rx="6" class="chip"/>
  <text x="117" y="104" text-anchor="middle" font-size="11.5" class="secondary-text">Open</text>
  <rect x="148" y="87" width="46" height="26" rx="6" class="chip"/>
  <text x="171" y="104" text-anchor="middle" font-size="11.5" class="secondary-text">Save</text>
  <rect x="203" y="87" width="73" height="26" rx="6" class="chip"/>
  <text x="239" y="104" text-anchor="middle" font-size="11.5" class="secondary-text">Validate</text>
  <rect x="283" y="87" width="60" height="26" rx="6" class="chip"/>
  <text x="313" y="104" text-anchor="middle" font-size="11.5" class="secondary-text">Export</text>
  <rect x="351" y="87" width="60" height="26" rx="6" class="chip"/>
  <text x="381" y="104" text-anchor="middle" font-size="11.5" class="secondary-text">Search</text>
  <rect x="419" y="87" width="60" height="26" rx="6" class="chip"/>
  <text x="448" y="104" text-anchor="middle" font-size="11.5" class="secondary-text">Deploy</text>
  <line x1="30" y1="128" x2="870" y2="128" class="border"/>

  <rect x="46" y="191" width="106" height="26" rx="6" class="chip"/>
  <text x="99" y="208" text-anchor="middle" font-size="11.5" class="secondary-text">Apply Changes</text>
  <rect x="46" y="230" width="808" height="44" rx="7" class="row"/>
  <rect x="58" y="242" width="20" height="20" rx="5" class="bar"/>
  <rect x="88" y="245" width="339" height="9" rx="4.5" class="bar"/>
  <rect x="88" y="260" width="210" height="6" rx="3" class="bar"/>
  <rect x="46" y="282" width="808" height="44" rx="7" class="row"/>
  <rect x="58" y="294" width="20" height="20" rx="5" class="bar"/>
  <rect x="88" y="297" width="339" height="9" rx="4.5" class="bar"/>
  <rect x="88" y="312" width="210" height="6" rx="3" class="bar"/>
  <rect x="46" y="334" width="808" height="44" rx="7" class="row"/>
  <rect x="58" y="346" width="20" height="20" rx="5" class="bar"/>
  <rect x="88" y="349" width="339" height="9" rx="4.5" class="bar"/>
  <rect x="88" y="364" width="210" height="6" rx="3" class="bar"/>
  <rect x="46" y="386" width="808" height="44" rx="7" class="row"/>
  <rect x="58" y="398" width="20" height="20" rx="5" class="bar"/>
  <rect x="88" y="401" width="339" height="9" rx="4.5" class="bar"/>
  <rect x="88" y="416" width="210" height="6" rx="3" class="bar"/>
  <rect x="46" y="438" width="808" height="44" rx="7" class="row"/>
  <rect x="58" y="450" width="20" height="20" rx="5" class="bar"/>
  <rect x="88" y="453" width="339" height="9" rx="4.5" class="bar"/>
  <rect x="88" y="468" width="210" height="6" rx="3" class="bar"/>
  <rect x="46" y="490" width="808" height="44" rx="7" class="row"/>
  <rect x="58" y="502" width="20" height="20" rx="5" class="bar"/>
  <rect x="88" y="505" width="339" height="9" rx="4.5" class="bar"/>
  <rect x="88" y="520" width="210" height="6" rx="3" class="bar"/>
  <!-- regen: scripts/docs_app_screens.py -->
</svg>
