<svg width="900" height="600" xmlns="http://www.w3.org/2000/svg" role="img" aria-label="Learn">
  <defs>
    <linearGradient id="accentGrad" x1="0%" y1="0%" x2="100%" y2="100%">
      <stop offset="0%" stop-color="#2563eb"/>
      <stop offset="100%" stop-color="#60a5fa"/>
    </linearGradient>
  </defs>
  <style>
    .bg { fill: #ffffff; }
    .titlebar { fill: #f8fafc; }
    .sidebar-bg { fill: #f8fafc; }
    .main-text { fill: #1e293b; font-family: system-ui, -apple-system, sans-serif; }
    .secondary-text { fill: #64748b; font-family: system-ui, -apple-system, sans-serif; }
    .muted-text { fill: #94a3b8; font-family: system-ui, -apple-system, sans-serif; }
    .white-text { fill: #ffffff; font-family: system-ui, -apple-system, sans-serif; }
    .accent-text { fill: #2563eb; font-family: system-ui, -apple-system, sans-serif; }
    .border { stroke: #e2e8f0; stroke-width: 1; fill: none; }
    .chip { fill: #f1f5f9; }
    .chip-active { fill: #dbeafe; }
    .row { fill: #f8fafc; }
    .bar { fill: #e2e8f0; }
    @media (prefers-color-scheme: dark) {
      .bg { fill: #0f172a; }
      .titlebar { fill: #1e293b; }
      .sidebar-bg { fill: #1e293b; }
      .main-text { fill: #e2e8f0; }
      .secondary-text { fill: #94a3b8; }
      .muted-text { fill: #64748b; }
      .accent-text { fill: #60a5fa; }
      .border { stroke: #334155; }
      .chip { fill: #334155; }
      .chip-active { fill: #1e3a5f; }
      .row { fill: #1e293b; }
      .bar { fill: #334155; }
    }
  </style>
  <text x="450" y="25" text-anchor="middle" font-size="16" font-weight="600" class="main-text">Learn</text>
  <rect x="30" y="40" width="840" height="530" rx="8" class="bg"/>
  <rect x="30" y="40" width="840" height="530" rx="8" class="border"/>
  <path d="M30 52 a12 12 0 0 1 12 -12 h816 a12 12 0 0 1 12 12 v32 h-840 z" class="titlebar"/>
  <text x="46" y="61" font-size="13.5" font-weight="600" class="main-text">Learn</text>
  <text x="816" y="67" text-anchor="middle" font-size="13" class="muted-text">–</text>
  <text x="840" y="67" text-anchor="middle" font-size="13" class="muted-text">✕</text>
  <line x1="30" y1="84" x2="870" y2="84" class="border"/>
  <rect x="46" y="87" width="66" height="26" rx="6" class="chip"/>
  <text x="79" y="104" text-anchor="middle" font-size="11.5" class="secondary-text">Refresh</text>
  <line x1="30" y1="128" x2="870" y2="128" class="border"/>
  <rect x="46" y="140" width="69" height="27" rx="13.5" class="chip-active"/>
  <text x="80" y="158" text-anchor="middle" font-size="11.5" class="accent-text">Courses</text>
  <rect x="124" y="140" width="114" height="27" rx="13.5" class="chip"/>
  <text x="181" y="158" text-anchor="middle" font-size="11.5" class="secondary-text">Certifications</text>
  <rect x="246" y="140" width="69" height="27" rx="13.5" class="chip"/>
  <text x="281" y="158" text-anchor="middle" font-size="11.5" class="secondary-text">Creator</text>
  <rect x="324" y="140" width="75" height="27" rx="13.5" class="chip"/>
  <text x="362" y="158" text-anchor="middle" font-size="11.5" class="secondary-text">Progress</text>
  <rect x="46" y="188" width="396" height="170" rx="8" class="row"/>
  <text x="60" y="213" font-size="12.5" font-weight="600" class="main-text">Content Creation</text>
  <line x1="46" y1="224" x2="442" y2="224" class="border"/>
  <rect x="60" y="236" width="346" height="8" rx="4" class="bar"/>
  <rect x="60" y="251" width="272" height="8" rx="4" class="bar"/>
  <rect x="60" y="266" width="199" height="8" rx="4" class="bar"/>
  <rect x="458" y="188" width="396" height="170" rx="8" class="row"/>
  <text x="472" y="213" font-size="12.5" font-weight="600" class="main-text">Learning Stats</text>
  <line x1="458" y1="224" x2="854" y2="224" class="border"/>
  <rect x="472" y="236" width="346" height="8" rx="4" class="bar"/>
  <rect x="472" y="251" width="272" height="8" rx="4" class="bar"/>
  <rect x="472" y="266" width="199" height="8" rx="4" class="bar"/>
  <!-- regen: scripts/docs_app_screens.py -->
</svg>
