<svg width="900" height="600" xmlns="http://www.w3.org/2000/svg">
  <defs>
    <linearGradient id="accentGrad" x1="0%" y1="0%" x2="100%" y2="100%">
      <stop offset="0%" stop-color="#3b82f6"/>
      <stop offset="100%" stop-color="#60a5fa"/>
    </linearGradient>
  </defs>

  <style>
    .bg { fill: #ffffff; }
    .panel-bg { fill: #f8fafc; }
    .main-text { fill: #1e293b; font-family: system-ui, -apple-system, sans-serif; }
    .secondary-text { fill: #64748b; font-family: system-ui, -apple-system, sans-serif; }
    .muted-text { fill: #94a3b8; font-family: system-ui, -apple-system, sans-serif; }
    .white-text { fill: #ffffff; font-family: system-ui, -apple-system, sans-serif; }
    .accent-text { fill: #3b82f6; font-family: system-ui, -apple-system, sans-serif; }
    .border { stroke: #e2e8f0; stroke-width: 1; fill: none; }
    .icon-btn { fill: #f1f5f9; }
    .row-hover { fill: #f1f5f9; }
    .row-selected { fill: #eff6ff; }
    .unread-bg { fill: #eff6ff; }
    .unread-dot { fill: #3b82f6; }
    .nav-active { fill: #eff6ff; }

    @media (prefers-color-scheme: dark) {
      .bg { fill: #0f172a; }
      .panel-bg { fill: #1e293b; }
      .main-text { fill: #e2e8f0; }
      .secondary-text { fill: #94a3b8; }
      .muted-text { fill: #64748b; }
      .accent-text { fill: #60a5fa; }
      .border { stroke: #334155; }
      .icon-btn { fill: #334155; }
      .row-hover { fill: #1e293b; }
      .row-selected { fill: #1e3a5f; }
      .unread-bg { fill: #1e3a5f; }
      .nav-active { fill: #1e3a5f; }
    }
  </style>

  <text x="450" y="25" text-anchor="middle" font-size="16" font-weight="600" class="main-text">Mail - Email Client</text>

  <rect x="30" y="40" width="840" height="530" rx="8" class="bg"/>
  <rect x="30" y="40" width="840" height="530" rx="8" class="border"/>

  <!-- Sidebar Panel -->
  <rect x="30" y="40" width="160" height="530" class="panel-bg"/>
  <line x1="190" y1="40" x2="190" y2="570" class="border"/>

  <!-- Compose Button -->
  <g transform="translate(45, 55)">
    <rect x="0" y="0" width="130" height="40" rx="8" fill="url(#accentGrad)"/>
    <text x="65" y="26" text-anchor="middle" font-size="14" font-weight="500" class="white-text">✏ Compose</text>
  </g>

  <!-- Folder Navigation -->
  <g transform="translate(45, 115)">
    <rect x="-10" y="-8" width="150" height="36" rx="6" class="nav-active"/>
    <text x="0" y="14" font-size="14">📥</text>
    <text x="25" y="14" font-size="14" class="accent-text">Inbox</text>
    <text x="115" y="14" font-size="12" class="accent-text">3</text>

    <text x="0" y="54" font-size="14">📤</text>
    <text x="25" y="54" font-size="14" class="secondary-text">Sent</text>

    <text x="0" y="94" font-size="14">📝</text>
    <text x="25" y="94" font-size="14" class="secondary-text">Drafts</text>

    <text x="0" y="134" font-size="14">⭐</text>
    <text x="25" y="134" font-size="14" class="secondary-text">Starred</text>

    <text x="0" y="174" font-size="14">🗑️</text>
    <text x="25" y="174" font-size="14" class="secondary-text">Trash</text>
  </g>

  <!-- Mail List Panel -->
  <rect x="190" y="40" width="280" height="530" class="bg"/>
  <line x1="470" y1="40" x2="470" y2="570" class="border"/>

  <!-- Mail List Header -->
  <g transform="translate(205, 55)">
    <text x="0" y="15" font-size="16" font-weight="600" class="main-text">Inbox</text>
    <rect x="200" y="0" width="50" height="28" rx="6" class="icon-btn"/>
    <text x="225" y="19" text-anchor="middle" font-size="12">🔄</text>
  </g>

  <line x1="190" y1="85" x2="470" y2="85" class="border"/>

  <!-- Mail Items -->
  <g transform="translate(200, 95)">
    <!-- Unread Email 1 -->
    <rect x="0" y="0" width="260" height="75" rx="4" class="unread-bg"/>
    <circle cx="12" cy="37" r="4" class="unread-dot"/>
    <text x="25" y="20" font-size="13" font-weight="600" class="main-text">Sarah Johnson</text>
    <text x="180" y="20" font-size="11" class="muted-text">10:30 AM</text>
    <text x="25" y="40" font-size="12" font-weight="500" class="main-text">Project Update</text>
    <text x="25" y="58" font-size="12" class="secondary-text">Hi team, here is the latest...</text>
  </g>

  <g transform="translate(200, 175)">
    <!-- Unread Email 2 -->
    <rect x="0" y="0" width="260" height="75" rx="4" class="unread-bg"/>
    <circle cx="12" cy="37" r="4" class="unread-dot"/>
    <text x="25" y="20" font-size="13" font-weight="600" class="main-text">Marketing Team</text>
    <text x="180" y="20" font-size="11" class="muted-text">9:15 AM</text>
    <text x="25" y="40" font-size="12" font-weight="500" class="main-text">Q4 Campaign Results</text>
    <text x="25" y="58" font-size="12" class="secondary-text">The numbers are in and...</text>
  </g>

  <g transform="translate(200, 255)">
    <!-- Selected Email -->
    <rect x="0" y="0" width="260" height="75" rx="4" class="row-selected"/>
    <rect x="0" y="0" width="3" height="75" rx="1" fill="#3b82f6"/>
    <text x="25" y="20" font-size="13" font-weight="500" class="main-text">John Smith</text>
    <text x="180" y="20" font-size="11" class="muted-text">Yesterday</text>
    <text x="25" y="40" font-size="12" class="main-text">Meeting Notes</text>
    <text x="25" y="58" font-size="12" class="secondary-text">Thanks for the call today...</text>
  </g>

  <g transform="translate(200, 335)">
    <!-- Read Email -->
    <text x="25" y="20" font-size="13" class="secondary-text">Alex Chen</text>
    <text x="180" y="20" font-size="11" class="muted-text">Mar 15</text>
    <text x="25" y="40" font-size="12" class="secondary-text">Re: Budget Review</text>
    <text x="25" y="58" font-size="12" class="muted-text">Looks good to me...</text>
  </g>

  <g transform="translate(200, 405)">
    <text x="25" y="20" font-size="13" class="secondary-text">HR Department</text>
    <text x="180" y="20" font-size="11" class="muted-text">Mar 14</text>
    <text x="25" y="40" font-size="12" class="secondary-text">Benefits Enrollment</text>
    <text x="25" y="58" font-size="12" class="muted-text">Open enrollment starts...</text>
  </g>

  <!-- Mail Content Panel -->
  <rect x="470" y="40" width="400" height="530" class="bg"/>

  <!-- Email Header -->
  <g transform="translate(490, 60)">
    <text x="0" y="20" font-size="18" font-weight="600" class="main-text">Meeting Notes</text>

    <g transform="translate(0, 40)">
      <circle cx="18" cy="18" r="18" fill="#22c55e"/>
      <text x="18" y="23" text-anchor="middle" font-size="12" font-weight="600" class="white-text">JS</text>

      <text x="45" y="12" font-size="14" font-weight="500" class="main-text">John Smith</text>
      <text x="45" y="30" font-size="12" class="secondary-text">john.smith@company.com</text>

      <text x="300" y="20" font-size="12" class="muted-text">Yesterday, 3:45 PM</text>
    </g>
  </g>

  <line x1="490" y1="145" x2="850" y2="145" class="border"/>

  <!-- Email Actions -->
  <g transform="translate(490, 155)">
    <rect x="0" y="0" width="70" height="32" rx="6" class="icon-btn"/>
    <text x="35" y="21" text-anchor="middle" font-size="12" class="secondary-text">↩ Reply</text>

    <rect x="80" y="0" width="80" height="32" rx="6" class="icon-btn"/>
    <text x="120" y="21" text-anchor="middle" font-size="12" class="secondary-text">↩↩ Reply All</text>

    <rect x="170" y="0" width="75" height="32" rx="6" class="icon-btn"/>
    <text x="207" y="21" text-anchor="middle" font-size="12" class="secondary-text">↪ Forward</text>

    <rect x="255" y="0" width="60" height="32" rx="6" class="icon-btn"/>
    <text x="285" y="21" text-anchor="middle" font-size="12" class="secondary-text">🗑 Delete</text>
  </g>

  <line x1="490" y1="200" x2="850" y2="200" class="border"/>

  <!-- Email Body -->
  <g transform="translate(490, 220)">
    <text x="0" y="0" font-size="14" class="main-text">Hi Team,</text>
    <text x="0" y="30" font-size="14" class="main-text">Thanks for joining the call today. Here are the key</text>
    <text x="0" y="50" font-size="14" class="main-text">takeaways from our discussion:</text>

    <text x="0" y="90" font-size="14" class="main-text">• Project timeline updated to Q2 launch</text>
    <text x="0" y="115" font-size="14" class="main-text">• Budget approved for additional resources</text>
    <text x="0" y="140" font-size="14" class="main-text">• Next review scheduled for Friday</text>

    <text x="0" y="180" font-size="14" class="main-text">Let me know if you have any questions.</text>

    <text x="0" y="220" font-size="14" class="main-text">Best regards,</text>
    <text x="0" y="240" font-size="14" class="main-text">John</text>
  </g>

  <!-- Footer -->
  <g transform="translate(490, 540)">
    <text x="0" y="0" font-size="10" class="muted-text">Ctrl+R Reply | Ctrl+Shift+R Reply All | Ctrl+F Forward | Del Delete</text>
  </g>
</svg>
