<svg width="900" height="600" xmlns="http://www.w3.org/2000/svg" role="img" aria-label="Sheets">
  <defs>
    <linearGradient id="accentGrad" x1="0%" y1="0%" x2="100%" y2="100%">
      <stop offset="0%" stop-color="#2563eb"/>
      <stop offset="100%" stop-color="#60a5fa"/>
    </linearGradient>
  </defs>
  <style>
    .bg { fill: #ffffff; }
    .titlebar { fill: #f8fafc; }
    .sidebar-bg { fill: #f8fafc; }
    .main-text { fill: #1e293b; font-family: system-ui, -apple-system, sans-serif; }
    .secondary-text { fill: #64748b; font-family: system-ui, -apple-system, sans-serif; }
    .muted-text { fill: #94a3b8; font-family: system-ui, -apple-system, sans-serif; }
    .white-text { fill: #ffffff; font-family: system-ui, -apple-system, sans-serif; }
    .accent-text { fill: #2563eb; font-family: system-ui, -apple-system, sans-serif; }
    .border { stroke: #e2e8f0; stroke-width: 1; fill: none; }
    .chip { fill: #f1f5f9; }
    .chip-active { fill: #dbeafe; }
    .row { fill: #f8fafc; }
    .bar { fill: #e2e8f0; }
    @media (prefers-color-scheme: dark) {
      .bg { fill: #0f172a; }
      .titlebar { fill: #1e293b; }
      .sidebar-bg { fill: #1e293b; }
      .main-text { fill: #e2e8f0; }
      .secondary-text { fill: #94a3b8; }
      .muted-text { fill: #64748b; }
      .accent-text { fill: #60a5fa; }
      .border { stroke: #334155; }
      .chip { fill: #334155; }
      .chip-active { fill: #1e3a5f; }
      .row { fill: #1e293b; }
      .bar { fill: #334155; }
    }
  </style>
  <text x="450" y="25" text-anchor="middle" font-size="16" font-weight="600" class="main-text">Sheets</text>
  <rect x="30" y="40" width="840" height="530" rx="8" class="bg"/>
  <rect x="30" y="40" width="840" height="530" rx="8" class="border"/>
  <path d="M30 52 a12 12 0 0 1 12 -12 h816 a12 12 0 0 1 12 12 v32 h-840 z" class="titlebar"/>
  <text x="46" y="61" font-size="13.5" font-weight="600" class="main-text">Sheets</text>
  <text x="816" y="67" text-anchor="middle" font-size="13" class="muted-text">–</text>
  <text x="840" y="67" text-anchor="middle" font-size="13" class="muted-text">✕</text>
  <line x1="30" y1="84" x2="870" y2="84" class="border"/>
  <rect x="46" y="87" width="46" height="26" rx="6" class="chip"/>
  <text x="69" y="104" text-anchor="middle" font-size="11.5" class="secondary-text">Save</text>
  <rect x="100" y="87" width="53" height="26" rx="6" class="chip"/>
  <text x="127" y="104" text-anchor="middle" font-size="11.5" class="secondary-text">Share</text>
  <line x1="30" y1="128" x2="870" y2="128" class="border"/>
  <rect x="46" y="145" width="86" height="26" rx="6" class="chip"/>
  <text x="89" y="162" text-anchor="middle" font-size="11.5" class="secondary-text">📁 Arquivos</text>
  <rect x="140" y="145" width="79" height="26" rx="6" class="chip"/>
  <text x="180" y="162" text-anchor="middle" font-size="11.5" class="secondary-text">📊 Painéis</text>
  <rect x="227" y="145" width="132" height="26" rx="6" class="chip"/>
  <text x="294" y="162" text-anchor="middle" font-size="11.5" class="secondary-text">📐 Ranges Nomeados</text>
  <rect x="368" y="145" width="86" height="26" rx="6" class="chip"/>
  <text x="411" y="162" text-anchor="middle" font-size="11.5" class="secondary-text">📊 Gráficos</text>
  <rect x="462" y="145" width="99" height="26" rx="6" class="chip"/>
  <text x="511" y="162" text-anchor="middle" font-size="11.5" class="secondary-text">✓ Validações</text>
  <rect x="569" y="145" width="178" height="26" rx="6" class="chip"/>
  <text x="658" y="162" text-anchor="middle" font-size="11.5" class="secondary-text">🎨 Formatação Condicional</text>
  <rect x="46" y="184" width="396" height="76" rx="8" class="row"/>
  <text x="60" y="210" font-size="12.5" font-weight="600" class="main-text">📁 Arquivos</text>
  <rect x="60" y="224" width="317" height="7" rx="3.5" class="bar"/>
  <rect x="60" y="238" width="225" height="7" rx="3.5" class="bar"/>
  <rect x="458" y="184" width="396" height="76" rx="8" class="row"/>
  <text x="472" y="210" font-size="12.5" font-weight="600" class="main-text">📊 Painéis</text>
  <rect x="472" y="224" width="317" height="7" rx="3.5" class="bar"/>
  <rect x="472" y="238" width="225" height="7" rx="3.5" class="bar"/>
  <rect x="46" y="276" width="396" height="76" rx="8" class="row"/>
  <text x="60" y="302" font-size="12.5" font-weight="600" class="main-text">📐 Ranges Nomeados</text>
  <rect x="60" y="316" width="317" height="7" rx="3.5" class="bar"/>
  <rect x="60" y="330" width="225" height="7" rx="3.5" class="bar"/>
  <rect x="458" y="276" width="396" height="76" rx="8" class="row"/>
  <text x="472" y="302" font-size="12.5" font-weight="600" class="main-text">📊 Gráficos</text>
  <rect x="472" y="316" width="317" height="7" rx="3.5" class="bar"/>
  <rect x="472" y="330" width="225" height="7" rx="3.5" class="bar"/>
  <!-- regen: scripts/docs_app_screens.py -->
</svg>
