<svg width="700" height="380" xmlns="http://www.w3.org/2000/svg">
  <defs>
    <linearGradient id="primaryGrad" x1="0%" y1="0%" x2="100%" y2="100%">
      <stop offset="0%" style="stop-color:#6366F1;stop-opacity:1" />
      <stop offset="100%" style="stop-color:#8B5CF6;stop-opacity:1" />
    </linearGradient>

    <linearGradient id="orangeGrad" x1="0%" y1="0%" x2="100%" y2="100%">
      <stop offset="0%" style="stop-color:#F59E0B;stop-opacity:1" />
      <stop offset="100%" style="stop-color:#FBBF24;stop-opacity:1" />
    </linearGradient>

    <linearGradient id="greenGrad" x1="0%" y1="0%" x2="100%" y2="100%">
      <stop offset="0%" style="stop-color:#10B981;stop-opacity:1" />
      <stop offset="100%" style="stop-color:#34D399;stop-opacity:1" />
    </linearGradient>

    <filter id="cardShadow" x="-10%" y="-10%" width="120%" height="130%">
      <feDropShadow dx="0" dy="4" stdDeviation="8" flood-color="#6366F1" flood-opacity="0.15"/>
    </filter>

    <pattern id="dots" patternUnits="userSpaceOnUse" width="20" height="20">
      <circle cx="10" cy="10" r="1" fill="#6366F1" opacity="0.08"/>
    </pattern>
  </defs>

  <style>
    .title-text { fill: #1E1B4B; font-family: -apple-system, BlinkMacSystemFont, 'Segoe UI', Roboto, sans-serif; }
    .main-text { fill: #334155; font-family: -apple-system, BlinkMacSystemFont, 'Segoe UI', Roboto, sans-serif; }
    .secondary-text { fill: #64748B; font-family: -apple-system, BlinkMacSystemFont, 'Segoe UI', Roboto, sans-serif; }
    .white-text { fill: #FFFFFF; font-family: -apple-system, BlinkMacSystemFont, 'Segoe UI', Roboto, sans-serif; }
    .mono-text { fill: #475569; font-family: 'SF Mono', 'Fira Code', Consolas, monospace; }

    @media (prefers-color-scheme: dark) {
      .title-text { fill: #F1F5F9; }
      .main-text { fill: #E2E8F0; }
      .secondary-text { fill: #94A3B8; }
      .mono-text { fill: #CBD5E1; }
    }
  </style>

  <!-- Background -->
  <rect width="700" height="380" fill="#FAFBFC"/>
  <rect width="700" height="380" fill="url(#dots)"/>

  <!-- Main Card -->
  <rect x="30" y="20" width="640" height="340" rx="12" fill="#FFFFFF" stroke="#FCD34D" stroke-width="2" filter="url(#cardShadow)"/>

  <!-- Header -->
  <rect x="30" y="20" width="640" height="50" rx="12" fill="url(#orangeGrad)"/>
  <rect x="30" y="55" width="640" height="15" fill="url(#orangeGrad)"/>
  <text x="350" y="52" text-anchor="middle" font-size="18" font-weight="600" class="white-text">Orange Pi 5 — Best for Offline AI</text>

  <!-- Badge -->
  <rect x="550" y="30" width="100" height="25" rx="12" fill="#FFFFFF" opacity="0.9"/>
  <text x="600" y="48" text-anchor="middle" font-size="11" font-weight="600" style="fill:#F59E0B;">NPU Ready</text>

  <!-- Specs Grid -->
  <!-- Row 1 -->
  <g transform="translate(50, 90)">
    <rect x="0" y="0" width="180" height="65" rx="8" fill="#FFF7ED" stroke="#FDBA74" stroke-width="1"/>
    <text x="15" y="22" font-size="10" font-weight="600" class="secondary-text">CPU</text>
    <text x="15" y="40" font-size="12" font-weight="500" class="main-text">Rockchip RK3588S</text>
    <text x="15" y="55" font-size="10" class="mono-text">4x A76 + 4x A55</text>
  </g>

  <g transform="translate(250, 90)">
    <rect x="0" y="0" width="180" height="65" rx="8" fill="#EEF2FF" stroke="#C7D2FE" stroke-width="1"/>
    <text x="15" y="22" font-size="10" font-weight="600" class="secondary-text">NPU</text>
    <text x="15" y="40" font-size="12" font-weight="500" class="main-text">6 TOPS</text>
    <text x="15" y="55" font-size="10" class="mono-text">Neural Processing Unit</text>
  </g>

  <g transform="translate(450, 90)">
    <rect x="0" y="0" width="200" height="65" rx="8" fill="#F0FDF4" stroke="#86EFAC" stroke-width="1"/>
    <text x="15" y="22" font-size="10" font-weight="600" class="secondary-text">GPU</text>
    <text x="15" y="40" font-size="12" font-weight="500" class="main-text">Mali-G610 MP4</text>
    <text x="15" y="55" font-size="10" class="mono-text">OpenGL ES 3.2</text>
  </g>

  <!-- Row 2 -->
  <g transform="translate(50, 170)">
    <rect x="0" y="0" width="180" height="65" rx="8" fill="#F5F3FF" stroke="#DDD6FE" stroke-width="1"/>
    <text x="15" y="22" font-size="10" font-weight="600" class="secondary-text">RAM</text>
    <text x="15" y="40" font-size="12" font-weight="500" class="main-text">4GB / 8GB / 16GB</text>
    <text x="15" y="55" font-size="10" class="mono-text">LPDDR4X</text>
  </g>

  <g transform="translate(250, 170)">
    <rect x="0" y="0" width="180" height="65" rx="8" fill="#ECFDF5" stroke="#A7F3D0" stroke-width="1"/>
    <text x="15" y="22" font-size="10" font-weight="600" class="secondary-text">Storage</text>
    <text x="15" y="40" font-size="12" font-weight="500" class="main-text">M.2 NVMe + eMMC</text>
    <text x="15" y="55" font-size="10" class="mono-text">+ microSD slot</text>
  </g>

  <g transform="translate(450, 170)">
    <rect x="0" y="0" width="200" height="65" rx="8" fill="#FEF3C7" stroke="#FCD34D" stroke-width="1"/>
    <text x="15" y="22" font-size="10" font-weight="600" class="secondary-text">Price</text>
    <text x="15" y="40" font-size="16" font-weight="700" class="main-text">~$89</text>
    <text x="15" y="55" font-size="10" class="mono-text">8GB model</text>
  </g>

  <!-- LLM Performance Section -->
  <rect x="50" y="250" width="600" height="95" rx="8" fill="#F8FAFC" stroke="#E2E8F0" stroke-width="1"/>
  <text x="70" y="275" font-size="12" font-weight="600" class="main-text">LLM Performance</text>

  <!-- Performance Bars -->
  <g transform="translate(70, 290)">
    <text x="0" y="12" font-size="10" class="secondary-text">TinyLlama 1.1B Q4</text>
    <rect x="140" y="2" width="200" height="14" rx="4" fill="#E2E8F0"/>
    <rect x="140" y="2" width="160" height="14" rx="4" fill="url(#greenGrad)"/>
    <text x="350" y="12" font-size="10" font-weight="500" class="mono-text">~8-12 tok/s</text>
  </g>

  <g transform="translate(70, 312)">
    <text x="0" y="12" font-size="10" class="secondary-text">Phi-2 2.7B Q4</text>
    <rect x="140" y="2" width="200" height="14" rx="4" fill="#E2E8F0"/>
    <rect x="140" y="2" width="80" height="14" rx="4" fill="url(#orangeGrad)"/>
    <text x="350" y="12" font-size="10" font-weight="500" class="mono-text">~4-6 tok/s</text>
  </g>

  <g transform="translate(70, 334)">
    <text x="0" y="12" font-size="10" class="secondary-text">With NPU (rkllm)</text>
    <rect x="140" y="2" width="200" height="14" rx="4" fill="#E2E8F0"/>
    <rect x="140" y="2" width="200" height="14" rx="4" fill="url(#primaryGrad)"/>
    <text x="350" y="12" font-size="10" font-weight="500" class="mono-text">~20-30 tok/s</text>
  </g>
</svg>
